<?xml version="1.0" encoding="UTF-8" standalone="no"?>
<svg xmlns="http://www.w3.org/2000/svg" width="543" height="591">
  <path fill="#C8E4BC" d="M17.279 294.291h253.817v253.817H17.279z"/>
  <path fill="#F9BABA" d="M17.279 38.474h253.817v253.817H17.279z"/>
  <path fill="#92D9F8" d="M273.097 38.474h253.817v253.817H273.097z"/>
  <path fill="#E1C6DF" d="M273.097 294.291h253.817v253.817H273.097z"/>
  <path fill="#010101" d="M271.097 25.229v536.156h2V25.229h-2z"/>
  <path fill="#010101" d="M263.211 46.602l8.839-24.037 8.839 24.037c-5.219-3.841-12.359-3.818-17.678 0zM280.959 540.01l-8.839 24.037-8.839-24.037c5.219 3.84 12.359 3.818 17.678 0zM4.003 292.291v2h536.156v-2H4.003z"/>
  <path fill="#010101" d="M518.789 284.432l24.037 8.839-24.037 8.839c3.84-5.219 3.818-12.359 0-17.678zM25.38 302.18l-24.037-8.839 24.037-8.839c-3.839 5.219-3.817 12.358 0 17.678z"/>
  <text font-size="20.431" x="29.305" y="279.722" fill="#010101" font-family="Arial-BoldMT">
    Economic-
  </text>
  <text font-size="20.431" x="421.663" y="279.793" fill="#010101" font-family="Arial-BoldMT">
    Economic-
  </text>
  <text transform="translate(219.213 581.302)" fill="#010101" font-family="'Arial-BoldMT'" font-size="20.431">
    Libertarian
  </text>
  <text transform="translate(207.875 20.083)" fill="#010101" font-family="'Arial-BoldMT'" font-size="20.431">
    Authoritarian
  </text>
  <g fill="#00AAD4" font-family="'Arial-BoldMT'" font-size="20.431">
    <text transform="translate(336.567 158.154)">
      Authoritarian
    </text>
    <text transform="translate(373.295 182.936)">
      Right
    </text>
  </g>
  <g fill="#F37F81" font-family="'Arial-BoldMT'" font-size="20.431">
    <text transform="translate(80.75 158.154)">
      Authoritarian
    </text>
    <text transform="translate(124.85 182.936)">
      Left
    </text>
  </g>
  <g fill="#BE89BD" font-family="'Arial-BoldMT'" font-size="20.431">
    <text transform="translate(347.905 413.972)">
      Libertarian
    </text>
    <text transform="translate(373.295 438.753)">
      Right
    </text>
  </g>
  <g fill="#4AB749" font-family="'Arial-BoldMT'" font-size="20.431">
    <text transform="translate(92.088 416.002)">
      Libertarian
    </text>
    <text transform="translate(124.85 440.782)">
      Left
    </text>
  </g>
  <text y="315.967" x="444.751" font-size="20.431" fill="#010101" font-family="Arial-BoldMT">
    Right
  </text>
  <text font-size="20.431" x="44.378" y="314.198" fill="#010101" font-family="Arial-BoldMT">
    Left
  </text>
</svg>
